<svg     
    width="25"
    height="auto"
    viewBox="-2 0 213 218"
    fill="#61CBF4" 
    xmlns="http://www.w3.org/2000/svg"
>
<g clip-path="url(#clip0_587_2440)">
<path 
    fill-rule="evenodd" 
    clip-rule="evenodd" 
    d="M135.5 2.87101C131.242 4.81601 124.139 11.896 121.69 16.636C117.186 25.352 115.784 32.325 115.284 48.5C115.013 57.3 115.256 67.806 115.826 71.847C117.315 82.4 117.351 82.36 107.098 81.581C92.2461 80.452 57.9251 80.705 47.5001 82.019C30.7861 84.126 16.0391 90.093 8.80706 97.676C4.56706 102.121 0.95906 111.078 0.33406 118.71C-1.38394 139.701 16.9721 175.493 38.3501 192.835C54.0811 205.596 66.2551 211.848 80.7751 214.624C92.5791 216.881 100.137 215.794 110.835 210.303C120.982 205.094 126.851 198.535 130.987 187.776C138.745 167.599 140.507 155.17 140.475 120.844L140.45 94.189L143.975 93.605C145.914 93.284 152.054 93.017 157.619 93.011C174.733 92.992 189.185 89.62 197.041 83.811C201.463 80.542 205.802 73.506 206.575 68.35C209.276 50.339 189.937 18.88 169 7.22601C157.762 0.971005 143.67 -0.86099 135.5 2.87101ZM145.647 11.14C139.73 20.185 137.997 31.017 138.015 58.838C138.024 71.302 138.428 82.128 138.914 82.895C140.132 84.819 169.378 83.8 176.31 81.592C184.425 79.007 190.446 75.165 193.314 70.742C195.633 67.165 196 65.556 196 58.955C196 45.641 190.627 33.943 179.291 22.57C171.21 14.463 162.079 9.72701 153.476 9.17901C147.75 8.81501 147.053 8.98901 145.647 11.14ZM46.5001 91.526C28.4361 94.811 16.1291 102.694 12.0521 113.59C6.86406 127.457 11.0831 151.249 21.3991 166.294C22.8291 168.381 24.0001 170.355 24.0001 170.68C24.0001 172.203 40.1681 188.858 45.5001 192.827C63.0771 205.911 85.8301 210.254 100.93 203.408C112.636 198.1 121.497 187.553 124.096 175.834C126.915 163.118 125.563 135.791 120.586 104.867C118.924 94.543 117.942 92.468 114.28 91.541C112.751 91.154 98.6751 90.665 83.0001 90.454C61.0281 90.158 52.6671 90.404 46.5001 91.526ZM447.75 143.662C448.438 143.94 449.563 143.94 450.25 143.662C450.938 143.385 450.375 143.158 449 143.158C447.625 143.158 447.063 143.385 447.75 143.662ZM639.269 143.693C640.242 143.947 641.592 143.93 642.269 143.656C642.946 143.382 642.15 143.175 640.5 143.195C638.85 143.215 638.296 143.439 639.269 143.693ZM776.813 143.683C777.534 143.972 778.397 143.936 778.729 143.604C779.061 143.272 778.471 143.036 777.417 143.079C776.252 143.127 776.015 143.364 776.813 143.683ZM1070.81 143.683C1071.53 143.972 1072.4 143.936 1072.73 143.604C1073.06 143.272 1072.47 143.036 1071.42 143.079C1070.25 143.127 1070.01 143.364 1070.81 143.683Z" 
    fill="#61CBF4"
    stroke="black"
    stroke-width="2"
/>
</g>
<defs>
<clipPath id="clip0_587_2440">
<rect width="213" height="218" fill="white"/>
</clipPath>
</defs>
</svg>
