<svg viewBox="0 0 32 32" xml:space="preserve" xmlns="http://www.w3.org/2000/svg"><path d="M16 0C7.163 0 0 7.163 0 16s7.164 16 16 16c8.837 0 16-7.163 16-16S24.837 0 16 0zm2.067 18.96c.333.289.592 1.308.592 1.776v4.144H13.926s.007-1.405 0-2.368c-3.24.697-4.144-1.776-4.144-1.776-.592-1.184-1.184-1.776-1.184-1.776-1.184-.703 0-.592 0-.592 1.184 0 1.776 1.184 1.776 1.184 1.039 1.764 2.888 1.48 3.552 1.184 0-.592.259-1.487.592-1.776-2.586-.291-4.738-1.776-4.738-4.736s.594-3.552 1.186-4.144c-.12-.292-.615-1.37.018-2.96 0 0 1.163 0 2.347 1.776.587-.587 2.368-.592 2.961-.592.591 0 2.373.005 2.959.592 1.184-1.776 2.35-1.776 2.35-1.776.633 1.59.138 2.668.018 2.96.592.592 1.184 1.184 1.184 4.144.001 2.96-2.149 4.445-4.736 4.736z" fill="#ffffff" class="fill-000000"></path></svg>